<svg xmlns="http://www.w3.org/2000/svg">

  <!-- logo-mobile start -->
    <symbol id="logo-mobile" fill="currentColor" viewBox="0 0 96 15">
      <path d="M94.9113 6.18874C95.6371 5.72747 96 5.01634 96 4.05535C96 2.79967 95.4774 1.81306 94.4322 1.09552C93.4161 0.365174 92.2185 0 90.8394 0C89.4894 0 88.2555 0.397207 87.1378 1.19162C86.0345 1.97322 85.4829 3.01749 85.4829 4.32443C85.4829 4.81133 85.6353 5.21494 85.9402 5.53527C86.245 5.84278 86.6805 5.99654 87.2467 5.99654C87.7983 5.99654 88.2193 5.84278 88.5096 5.53527C88.8144 5.21494 88.9668 4.81133 88.9668 4.32443C88.9378 3.95285 89.0612 3.57486 89.337 3.19047C89.6128 2.79326 90.1136 2.59466 90.8394 2.59466C91.4491 2.60747 91.8846 2.76123 92.1459 3.05593C92.4217 3.35063 92.5451 3.64533 92.5161 3.94003C92.5161 4.14504 92.4435 4.35005 92.2983 4.55506C92.1532 4.76007 92.0008 4.92024 91.8411 5.03556C91.6959 5.15088 91.4564 5.31745 91.1225 5.53527C90.7886 5.75309 90.5564 5.90685 90.4257 5.99654C89.6709 6.54751 89.2935 7.27785 89.2935 8.18758C89.2935 8.63604 89.4531 9.01403 89.7725 9.32155C90.1064 9.61625 90.5491 9.7636 91.1007 9.7636C91.6524 9.7636 92.0878 9.61625 92.4072 9.32155C92.7411 9.01403 92.908 8.63604 92.908 8.18758C92.908 7.99539 92.9443 7.816 93.0169 7.64943C93.0895 7.48286 93.2056 7.32911 93.3653 7.18816C93.5395 7.04722 93.6846 6.9319 93.8008 6.84221C93.9314 6.75252 94.1201 6.6372 94.3669 6.49625C94.6282 6.35531 94.8097 6.2528 94.9113 6.18874Z"/>
      <path d="M76.3053 10.2354L80.1618 5.46351C80.5573 4.88748 81.0941 4.56674 81.7722 4.50128C82.4502 4.42273 83.0435 4.58638 83.5521 4.99221C84.0606 5.39805 84.3008 5.94135 84.2725 6.62211V13.4559C84.2725 13.8879 84.103 14.2545 83.764 14.5556C83.4391 14.8436 83.0435 14.9876 82.5774 14.9876C82.1112 14.9876 81.7086 14.8436 81.3696 14.5556C81.0447 14.2545 80.8822 13.8879 80.8822 13.4559V9.21424L77.0257 13.9861C76.6302 14.5622 76.0934 14.8829 75.4153 14.9484C74.7373 15.0269 74.144 14.8633 73.6354 14.4574C73.1269 14.0516 72.8867 13.5083 72.915 12.8275V6.01336C72.915 5.58133 73.0774 5.21477 73.4023 4.91367C73.7413 4.61256 74.144 4.46201 74.6101 4.46201C75.0763 4.46201 75.4718 4.61256 75.7967 4.91367C76.1358 5.21477 76.3053 5.58133 76.3053 6.01336V10.2354Z"/>
      <path fill-rule="evenodd" clip-rule="evenodd" d="M58.967 13.3889V5.97502C58.967 5.54871 58.7887 5.18234 58.4323 4.87593C58.0901 4.5562 57.6837 4.39633 57.2132 4.39633C56.7569 4.39633 56.3576 4.5562 56.0154 4.87593C55.6732 5.18234 55.5021 5.54871 55.5021 5.97502V5.79517C55.331 5.3955 54.9888 5.05578 54.4755 4.77601C53.9622 4.48292 53.3776 4.33638 52.7217 4.33638C51.4384 4.33638 50.2549 4.80932 49.1712 5.7552C48.1161 6.70109 47.5885 8.00001 47.5885 9.65198C47.5885 11.3439 48.109 12.6562 49.1498 13.5887C50.1907 14.5213 51.3813 14.9876 52.7217 14.9876C53.3776 14.9876 53.955 14.8677 54.4541 14.6279C54.9531 14.3747 55.3167 14.075 55.5449 13.7286C55.6304 14.0883 55.8301 14.3881 56.1438 14.6279C56.4574 14.8543 56.8139 14.9676 57.2132 14.9676C57.6837 14.9676 58.0901 14.8144 58.4323 14.508C58.7887 14.2015 58.967 13.8285 58.967 13.3889ZM53.4968 12.0265C54.6657 12.0265 55.6133 11.0009 55.6133 9.73559C55.6133 8.47034 54.6657 7.44464 53.4968 7.44464C52.328 7.44464 51.3804 8.47034 51.3804 9.73559C51.3804 11.0009 52.328 12.0265 53.4968 12.0265Z"/>
      <path d="M43.0813 8.23733V6.09447C43.0813 5.65909 43.2578 5.28968 43.6109 4.98624C43.9639 4.6696 44.3758 4.51128 44.8466 4.51128C45.3173 4.51128 45.7292 4.6696 46.0822 4.98624C46.4353 5.28968 46.6118 5.65909 46.6118 6.09447V13.4365C46.6118 13.8719 46.4353 14.2413 46.0822 14.5448C45.7439 14.8482 45.332 14.9999 44.8466 14.9999C44.3611 14.9999 43.9419 14.8482 43.5888 14.5448C43.2505 14.2413 43.0813 13.8719 43.0813 13.4365V11.262H39.264V13.4365C39.264 13.8719 39.0875 14.2413 38.7344 14.5448C38.3961 14.8482 37.9842 14.9999 37.4988 14.9999C37.0133 14.9999 36.5941 14.8482 36.241 14.5448C35.9027 14.2413 35.7335 13.8719 35.7335 13.4365V6.09447C35.7335 5.65909 35.9101 5.28968 36.2631 4.98624C36.6161 4.6696 37.028 4.51128 37.4988 4.51128C37.9695 4.51128 38.3814 4.6696 38.7344 4.98624C39.0875 5.28968 39.264 5.65909 39.264 6.09447V8.23733H43.0813Z"/>
      <path d="M33.9622 4.51128C34.308 4.51128 34.6045 4.64246 34.8515 4.90482C35.0985 5.16718 35.222 5.7719 35.222 6.1392C35.222 6.50651 35.0985 6.8863 34.8515 7.14866C34.6045 7.41102 34.308 7.5033 33.9622 7.5033H31.0038V13.4743C31.0038 14.6043 30.0103 15 29.014 15C28.0896 15 27.207 14.4993 27.207 13.4849L27.2376 4.51128C27.2376 4.51128 32.3922 4.51128 33.9622 4.51128Z"/>
      <path d="M12.8551 0V13.3315C12.8551 13.7712 12.6164 14.1441 12.2855 14.4505C11.9684 14.757 11.4699 14.9102 11.0149 14.9102C10.5599 14.9102 9.9021 14.757 9.57117 14.4505C9.25404 14.1441 9.09547 13.7711 9.09547 13.3315V3.00913H3.77227V13.3315C3.77227 13.7711 3.60681 14.1441 3.27589 14.4505C2.95875 14.757 2.31306 14.9102 1.85804 14.9102C1.40303 14.9102 0.806623 14.757 0.475701 14.4505C0.158567 14.1441 0 13.7711 0 13.3315V0C4.26062 0 12.8551 0 12.8551 0Z"/>
      <path d="M24.6375 13.365C23.5609 14.3757 22.1202 14.8811 20.3154 14.8811C18.5106 14.8811 17.0778 14.3757 16.0171 13.365C14.9247 12.3391 14.3785 11.0569 14.3785 9.51811C14.3785 7.96428 14.9247 6.68199 16.0171 5.67125C17.0778 4.6605 18.5106 4.15513 20.3154 4.15513C22.1202 4.15513 23.5609 4.6605 24.6375 5.67125C25.714 6.69708 26.2523 7.97937 26.2523 9.51811C26.2523 11.0569 25.714 12.3391 24.6375 13.365ZM21.8353 7.93411C21.5345 7.61731 21.1624 7.42874 20.7191 7.36839C20.2917 7.29296 19.88 7.33068 19.4843 7.48154C19.1043 7.63239 18.7797 7.88885 18.5106 8.25091C18.2573 8.61297 18.1465 9.03537 18.1781 9.51811C18.1781 10.1517 18.376 10.6797 18.7718 11.1021C19.1835 11.5094 19.698 11.7131 20.3154 11.7131C20.9487 11.7131 21.4632 11.517 21.859 11.1247C22.2548 10.7174 22.4527 10.1819 22.4527 9.51811C22.4527 8.88451 22.2469 8.35651 21.8353 7.93411Z"/>
      <path d="M64.0219 4.46201C66.0459 4.46201 71.4392 4.49207 71.4392 4.49207C71.4392 4.49207 71.4433 11.0831 71.4433 13.3863C71.4433 13.8287 71.2612 14.2101 70.8972 14.5305C70.5497 14.8356 70.2353 14.9882 69.7058 14.9882C69.1763 14.9882 68.9064 15.0283 68.5424 14.7232C68.1949 14.4028 67.8752 13.8287 67.8752 13.3863V7.43679H65.4188C65.4188 11.7016 65.4189 12.6387 63.8482 14.1644C63.269 14.7136 62.5244 14.9882 61.6143 14.9882C61.0683 14.9882 60.7474 14.8573 60.4 14.5522C60.0525 14.2318 59.7828 13.7205 59.7828 13.2476C59.7828 12.2296 59.9964 11.8245 60.5424 11.1604C62.1091 11.1604 62.0413 10.7809 61.943 7.89444V6.06381C61.9596 5.62141 62.0413 4.46201 62.0413 4.46201C62.0413 4.46201 63.542 4.46201 64.0219 4.46201Z"/>
      <path d="M93.1598 12.7451C93.1598 13.9835 92.1101 14.9875 90.8153 14.9875C89.5204 14.9875 88.4707 13.9835 88.4707 12.7451C88.4707 11.5066 89.5204 10.5027 90.8153 10.5027C92.1101 10.5027 93.1598 11.5066 93.1598 12.7451Z"/>
    </symbol>
  <!-- logo-mobile end -->

  <!-- logo-tablet start -->
    <symbol id="logo-tablet" fill="currentColor" viewBox="0 0 166 42">
      <path d="M78.0162 10.6207L44.7361 42L32.5887 1.7717L78.0162 10.6207Z" fill="#FF8D30"/>
      <ellipse cx="78.6236" cy="28.4735" rx="3.613" ry="3.57161" fill="#88BFEB"/>
      <ellipse cx="92.8495" cy="18.0864" rx="12.5943" ry="12.45" fill="#EB9898"/>
      <rect width="46.6582" height="23.5536" transform="matrix(0.939135 -0.343549 0.350582 0.936532 85.439 19.5749)" fill="#72A73E"/>
      <ellipse cx="91.3341" cy="34.1406" rx="2.11696" ry="2.09272" fill="#FFBD30"/>
      <ellipse rx="18.9194" ry="7.58723" transform="matrix(0.970246 0.242122 -0.247424 0.968907 132.047 28.0501)" fill="#8EC7F5"/>
      <ellipse cx="146.385" cy="10.2562" rx="2.15293" ry="2.12827" fill="#FFBD30"/>
      <ellipse cx="153.101" cy="7.72761" rx="2.15293" ry="2.12827" fill="#FFBD30"/>
      <path d="M3.34155 35.349H8.33248V37.6688C8.33248 38.2211 7.88477 38.6688 7.33248 38.6688H4.34155C3.78927 38.6688 3.34155 38.2211 3.34155 37.6688V35.349Z" fill="#1D2959"/>
      <path d="M34.2032 35.349H39.1942V37.6688C39.1942 38.2211 38.7465 38.6688 38.1942 38.6688H35.2032C34.651 38.6688 34.2032 38.2211 34.2032 37.6688V35.349Z" fill="#1D2959"/>
      <path fill-rule="evenodd" clip-rule="evenodd" d="M23.9205 2.93804C22.947 2.55374 21.8836 2.24535 21.112 2.26056C20.3856 2.27488 19.3909 2.58611 18.4833 2.96056C17.9752 3.1702 17.4736 3.40137 16.99 3.6628L16.9868 3.66455C16.4147 3.97905 15.6944 3.77264 15.3782 3.20325C15.062 2.63378 15.2695 1.91701 15.8417 1.6023C16.0084 1.51188 16.1773 1.42555 16.3473 1.34147C16.653 1.19024 17.082 0.9881 17.5767 0.783995C18.5254 0.392564 19.8677 0.024811 21.0651 0.00120765C22.3393 -0.0239095 23.7771 0.346681 24.7933 0.747828C25.4274 0.998099 26.0525 1.27466 26.6532 1.59671L26.654 1.59711C27.229 1.90657 27.4432 2.62141 27.1322 3.19375C26.8231 3.76289 26.0944 3.97184 25.5245 3.66786C25.3788 3.59088 25.231 3.51777 25.0825 3.4464C24.7922 3.30694 24.3853 3.12153 23.9205 2.93804Z" fill="#8A4A38"/>
      <path fill-rule="evenodd" clip-rule="evenodd" d="M15.9928 1.44998C15.4619 1.44998 15.0315 1.88038 15.0315 2.41131V3.02596C15.0315 3.4684 15.3902 3.82707 15.8326 3.82707H15.8543V6.89417H16.6931V3.80514H16.4747C17.0218 3.69862 17.4348 3.2168 17.4348 2.63853C17.4348 1.98211 16.9027 1.44998 16.2463 1.44998H15.9928Z" fill="#F6EF3E"/>
      <path fill-rule="evenodd" clip-rule="evenodd" d="M26.5127 1.44998C27.0436 1.44998 27.474 1.88038 27.474 2.41131V3.02596C27.474 3.4684 27.1153 3.82707 26.6729 3.82707H26.6512V6.89417H25.8124V3.80514H26.0308C25.4837 3.69862 25.0707 3.2168 25.0707 2.63853C25.0707 1.98211 25.6028 1.44998 26.2592 1.44998H26.5127Z" fill="#F6EF3E"/>
      <path d="M0 15.5203C0 10.5497 4.02944 6.52026 9 6.52026H33.5399C38.5105 6.52026 42.5399 10.5497 42.5399 15.5203V35.349H0V15.5203Z" fill="#8A4A38"/>
      <ellipse cx="6.68408" cy="27.9276" rx="4.16748" ry="4.12104" fill="#EF9A9A"/>
      <ellipse rx="4.01571" ry="7.727" transform="matrix(0.700848 -0.71331 0.721334 0.692588 32.7661 28.0696)" fill="#93C6EB"/>
      <rect width="13.6922" height="7.62634" transform="matrix(0.688909 -0.724848 0.732721 0.680529 16.3958 17.905)" fill="#C2DEA3"/>
      <rect width="6.95591" height="5.21665" rx="1" transform="matrix(0.733892 0.679267 -0.687658 0.726035 8.78491 11.1394)" fill="#C49A6C"/>
      <rect x="8.33264" y="19.3622" width="5.86679" height="16.7996" fill="#F57B20"/>
      <path d="M8.33264 5.43422H14.1994V19.982C14.1994 21.602 12.8861 22.9154 11.266 22.9154C9.64597 22.9154 8.33264 21.6021 8.33264 19.982V5.43422Z" fill="#F6A725"/>
      <rect x="7.51941" y="18.042" width="7.49871" height="1.64937" fill="#F6EF3E"/>
      <rect x="28.3462" y="19.3622" width="5.86679" height="16.7996" fill="#F57B20"/>
      <path d="M28.3462 5.43422H34.213V19.982C34.213 21.602 32.8997 22.9154 31.2796 22.9154C29.6595 22.9154 28.3462 21.6021 28.3462 19.982V5.43422Z" fill="#F6A725"/>
      <rect x="27.533" y="18.042" width="7.49871" height="1.64937" fill="#F6EF3E"/>
      <g filter="url(#filter0_d_13528_717)">
        <path d="M164.789 19.0571C165.596 18.5496 166 17.7672 166 16.7099C166 15.3283 165.419 14.2428 164.257 13.4533C163.127 12.6497 161.795 12.248 160.261 12.248C158.76 12.248 157.388 12.685 156.145 13.559C154.918 14.419 154.304 15.568 154.304 17.0059C154.304 17.5416 154.474 17.9857 154.813 18.3381C155.152 18.6765 155.636 18.8456 156.266 18.8456C156.879 18.8456 157.347 18.6765 157.67 18.3381C158.009 17.9857 158.179 17.5416 158.179 17.0059C158.146 16.5971 158.284 16.1812 158.59 15.7583C158.897 15.3212 159.454 15.1027 160.261 15.1027C160.939 15.1168 161.423 15.286 161.714 15.6102C162.021 15.9345 162.158 16.2587 162.126 16.583C162.126 16.8085 162.045 17.0341 161.884 17.2597C161.722 17.4852 161.553 17.6614 161.375 17.7883C161.214 17.9152 160.947 18.0985 160.576 18.3381C160.205 18.5778 159.946 18.747 159.801 18.8456C158.962 19.4518 158.542 20.2554 158.542 21.2563C158.542 21.7498 158.719 22.1656 159.075 22.504C159.446 22.8282 159.938 22.9903 160.552 22.9903C161.165 22.9903 161.649 22.8282 162.005 22.504C162.376 22.1656 162.562 21.7498 162.562 21.2563C162.562 21.0449 162.602 20.8475 162.683 20.6642C162.763 20.481 162.892 20.3118 163.07 20.1567C163.264 20.0017 163.425 19.8748 163.554 19.7761C163.7 19.6774 163.91 19.5505 164.184 19.3955C164.475 19.2404 164.676 19.1276 164.789 19.0571Z"/>
        <path d="M144.098 23.5094L148.387 18.2592C148.827 17.6254 149.424 17.2725 150.178 17.2005C150.932 17.1141 151.591 17.2941 152.157 17.7406C152.723 18.1872 152.99 18.7849 152.958 19.5339V27.0528C152.958 27.5281 152.77 27.9314 152.393 28.2627C152.031 28.5796 151.591 28.7381 151.073 28.7381C150.555 28.7381 150.107 28.5796 149.73 28.2627C149.369 27.9314 149.188 27.5281 149.188 27.0528V22.3859L144.899 27.6362C144.459 28.2699 143.862 28.6228 143.108 28.6949C142.354 28.7813 141.694 28.6012 141.129 28.1547C140.563 27.7082 140.296 27.1104 140.328 26.3614V18.8641C140.328 18.3888 140.508 17.9855 140.87 17.6542C141.247 17.3229 141.694 17.1573 142.213 17.1573C142.731 17.1573 143.171 17.3229 143.532 17.6542C143.91 17.9855 144.098 18.3888 144.098 18.8641V23.5094Z"/>
        <path fill-rule="evenodd" clip-rule="evenodd" d="M124.817 26.9791V18.822C124.817 18.3529 124.618 17.9498 124.222 17.6127C123.841 17.2609 123.389 17.085 122.866 17.085C122.359 17.085 121.915 17.2609 121.534 17.6127C121.154 17.9498 120.963 18.3529 120.963 18.822V18.6241C120.773 18.1844 120.392 17.8106 119.822 17.5028C119.251 17.1803 118.601 17.0191 117.871 17.0191C116.444 17.0191 115.128 17.5394 113.923 18.5801C112.749 19.6208 112.163 21.05 112.163 22.8675C112.163 24.7291 112.742 26.1729 113.899 27.1989C115.057 28.225 116.381 28.738 117.871 28.738C118.601 28.738 119.243 28.6061 119.798 28.3422C120.353 28.0637 120.757 27.7339 121.011 27.3528C121.106 27.7486 121.328 28.0784 121.677 28.3422C122.026 28.5914 122.422 28.716 122.866 28.716C123.389 28.716 123.841 28.5474 124.222 28.2103C124.618 27.8732 124.817 27.4628 124.817 26.9791ZM118.733 25.4801C120.033 25.4801 121.087 24.3516 121.087 22.9595C121.087 21.5674 120.033 20.4389 118.733 20.4389C117.433 20.4389 116.38 21.5674 116.38 22.9595C116.38 24.3516 117.433 25.4801 118.733 25.4801Z"/>
        <path d="M107.15 21.3111V18.9534C107.15 18.4744 107.347 18.0679 107.739 17.7341C108.132 17.3857 108.59 17.2115 109.114 17.2115C109.637 17.2115 110.095 17.3857 110.488 17.7341C110.88 18.0679 111.077 18.4744 111.077 18.9534V27.0315C111.077 27.5105 110.88 27.9169 110.488 28.2508C110.111 28.5847 109.653 28.7516 109.114 28.7516C108.574 28.7516 108.107 28.5847 107.715 28.2508C107.339 27.9169 107.15 27.5105 107.15 27.0315V24.639H102.905V27.0315C102.905 27.5105 102.709 27.9169 102.316 28.2508C101.94 28.5847 101.482 28.7516 100.942 28.7516C100.402 28.7516 99.9361 28.5847 99.5435 28.2508C99.1673 27.9169 98.9791 27.5105 98.9791 27.0315V18.9534C98.9791 18.4744 99.1754 18.0679 99.5681 17.7341C99.9607 17.3857 100.419 17.2115 100.942 17.2115C101.466 17.2115 101.924 17.3857 102.316 17.7341C102.709 18.0679 102.905 18.4744 102.905 18.9534V21.3111H107.15Z"/>
        <path d="M97.0093 17.2115C97.3939 17.2115 97.7235 17.3558 97.9982 17.6445C98.2729 17.9331 98.4102 18.5985 98.4102 19.0026C98.4102 19.4067 98.2729 19.8246 97.9982 20.1133C97.7235 20.4019 97.3939 20.5035 97.0093 20.5035H93.7193V27.073C93.7193 28.3163 92.6144 28.7517 91.5065 28.7517C90.4785 28.7517 89.497 28.2008 89.497 27.0847L89.531 17.2115C89.531 17.2115 95.2633 17.2115 97.0093 17.2115Z"/>
        <path d="M73.5366 12.248V26.916C73.5366 27.3997 73.2711 27.81 72.9031 28.1471C72.5504 28.4843 71.9961 28.6528 71.4901 28.6528C70.9841 28.6528 70.2526 28.4843 69.8846 28.1471C69.5319 27.81 69.3556 27.3996 69.3556 26.9159V15.5588H63.4358V26.9159C63.4358 27.3996 63.2518 27.81 62.8838 28.1471C62.5311 28.4843 61.813 28.6528 61.307 28.6528C60.801 28.6528 60.1377 28.4843 59.7697 28.1471C59.4171 27.81 59.2407 27.3996 59.2407 26.9159V12.248C63.9789 12.248 73.5366 12.248 73.5366 12.248Z"/>
        <path d="M86.6395 26.9528C85.4423 28.0648 83.8401 28.6209 81.833 28.6209C79.8259 28.6209 78.2326 28.0648 77.053 26.9528C75.8382 25.8241 75.2308 24.4133 75.2308 22.7203C75.2308 21.0107 75.8382 19.5998 77.053 18.4877C78.2326 17.3757 79.8259 16.8196 81.833 16.8196C83.8401 16.8196 85.4423 17.3757 86.6395 18.4877C87.8367 19.6164 88.4353 21.0272 88.4353 22.7203C88.4353 24.4133 87.8367 25.8241 86.6395 26.9528ZM83.5232 20.9775C83.1887 20.6289 82.7749 20.4214 82.282 20.355C81.8066 20.272 81.3489 20.3135 80.9087 20.4795C80.4862 20.6455 80.1252 20.9277 79.8259 21.326C79.5442 21.7244 79.421 22.1891 79.4562 22.7203C79.4562 23.4174 79.6763 23.9983 80.1164 24.463C80.5742 24.9112 81.1464 25.1353 81.833 25.1353C82.5373 25.1353 83.1095 24.9195 83.5496 24.4879C83.9898 24.0398 84.2098 23.4506 84.2098 22.7203C84.2098 22.0231 83.981 21.4422 83.5232 20.9775Z"/>
        <path d="M130.438 17.1573C132.689 17.1573 138.687 17.1904 138.687 17.1904C138.687 17.1904 138.691 24.4421 138.691 26.9763C138.691 27.463 138.489 27.8826 138.084 28.2351C137.697 28.5708 137.348 28.7386 136.759 28.7386C136.17 28.7386 135.87 28.7828 135.465 28.4471C135.079 28.0946 134.723 27.463 134.723 26.9763V20.4303H131.991C131.991 25.1227 131.992 26.1537 130.245 27.8323C129.601 28.4365 128.773 28.7386 127.761 28.7386C127.153 28.7386 126.797 28.5946 126.41 28.2589C126.024 27.9065 125.724 27.344 125.724 26.8236C125.724 25.7036 125.961 25.2578 126.568 24.5271C128.311 24.5271 128.235 24.1096 128.126 20.9338V18.9197C128.144 18.4329 128.235 17.1573 128.235 17.1573C128.235 17.1573 129.904 17.1573 130.438 17.1573Z"/>
        <path d="M162.841 26.2707C162.841 27.6333 161.674 28.7379 160.234 28.7379C158.794 28.7379 157.627 27.6333 157.627 26.2707C157.627 24.9081 158.794 23.8035 160.234 23.8035C161.674 23.8035 162.841 24.9081 162.841 26.2707Z"/>
      </g>
      <defs>
        <filter id="filter0_d_13528_717" x="57.2407" y="11.248" width="110.759" height="20.5037" filterUnits="userSpaceOnUse" color-interpolation-filters="sRGB">
          <feFlood flood-opacity="0" result="BackgroundImageFix"/>
          <feColorMatrix in="SourceAlpha" type="matrix" values="0 0 0 0 0 0 0 0 0 0 0 0 0 0 0 0 0 0 127 0" result="hardAlpha"/>
          <feOffset dy="1"/>
          <feGaussianBlur stdDeviation="1"/>
          <feColorMatrix type="matrix" values="0 0 0 0 0 0 0 0 0 0 0 0 0 0 0 0 0 0 0.3 0"/>
          <feBlend mode="normal" in2="BackgroundImageFix" result="effect1_dropShadow_13528_717"/>
          <feBlend mode="normal" in="SourceGraphic" in2="effect1_dropShadow_13528_717" result="shape"/>
        </filter>
      </defs>
    </symbol>
  <!-- logo-tablet end -->

  <!-- logo-desktop start -->
    <symbol id="logo-desktop" fill="currentColor" viewBox="0 0 200 50">
      <path d="M93.9956 12.6437L53.899 50L39.2637 2.10917L93.9956 12.6437Z" fill="#FF8D30"/>
      <ellipse cx="94.727" cy="33.897" rx="4.353" ry="4.25192" fill="#88BFEB"/>
      <ellipse cx="111.867" cy="21.5314" rx="15.1738" ry="14.8214" fill="#EB9898"/>
      <rect width="56.1361" height="28.0818" transform="matrix(0.940449 -0.339934 0.354279 0.93514 102.938 23.3034)" fill="#72A73E"/>
      <ellipse cx="110.041" cy="40.6436" rx="2.55056" ry="2.49133" fill="#FFBD30"/>
      <ellipse rx="22.7786" ry="9.03912" transform="matrix(0.97092 0.239406 -0.250219 0.968189 159.093 33.3929)" fill="#8EC7F5"/>
      <ellipse cx="176.368" cy="12.2097" rx="2.59389" ry="2.53366" fill="#FFBD30"/>
      <ellipse cx="184.46" cy="9.19954" rx="2.59389" ry="2.53366" fill="#FFBD30"/>
      <path d="M4.02588 42.0822H10.039V45.0343C10.039 45.5866 9.59133 46.0343 9.03905 46.0343H5.02588C4.47359 46.0343 4.02588 45.5866 4.02588 45.0343V42.0822Z" fill="#1D2959"/>
      <path d="M41.209 42.0822H47.2222V45.0343C47.2222 45.5866 46.7744 46.0343 46.2222 46.0343H42.209C41.6567 46.0343 41.209 45.5866 41.209 45.0343V42.0822Z" fill="#1D2959"/>
      <path fill-rule="evenodd" clip-rule="evenodd" d="M28.8202 3.49767C27.6472 3.04017 26.366 2.67304 25.4365 2.69114C24.5613 2.70819 23.3628 3.0787 22.2693 3.52448C21.6572 3.77405 21.0528 4.04925 20.4702 4.36048L20.4663 4.36256C19.777 4.73697 18.9092 4.49124 18.5283 3.8134C18.1473 3.13545 18.3973 2.28216 19.0867 1.9075C19.2875 1.79986 19.491 1.69708 19.6958 1.59699C20.0642 1.41695 20.581 1.17631 21.177 0.933328C22.32 0.467338 23.9373 0.0295369 25.38 0.00143768C26.9152 -0.0284637 28.6474 0.412716 29.8718 0.890271C30.6356 1.18821 31.3888 1.51746 32.1126 1.90084L32.1135 1.90132C32.8064 2.26972 33.0643 3.12072 32.6897 3.80208C32.3172 4.47963 31.4393 4.72838 30.7526 4.3665C30.5771 4.27486 30.3991 4.18782 30.2201 4.10286C29.8704 3.93684 29.3802 3.71611 28.8202 3.49767Z" fill="#8A4A38"/>
      <path fill-rule="evenodd" clip-rule="evenodd" d="M19.2681 1.72617C18.6284 1.72617 18.1099 2.24473 18.1099 2.8844V3.59085C18.1099 4.12391 18.542 4.55604 19.0751 4.55604H19.1011V8.20736H20.1118V4.52993H19.8625C20.5138 4.40313 21.0054 3.82953 21.0054 3.14111C21.0054 2.35966 20.372 1.72617 19.5905 1.72617H19.2681Z" fill="#F6EF3E"/>
      <path fill-rule="evenodd" clip-rule="evenodd" d="M31.9428 1.72617C32.5825 1.72617 33.1011 2.24473 33.1011 2.8844V3.59085C33.1011 4.12391 32.6689 4.55604 32.1359 4.55604H32.1098V8.20736H31.0991V4.52993H31.3485C30.6971 4.40313 30.2055 3.82953 30.2055 3.14111C30.2055 2.35966 30.839 1.72617 31.6204 1.72617H31.9428Z" fill="#F6EF3E"/>
      <path d="M0 16.7622C0 11.7917 4.02944 7.76221 9 7.76221H42.2528C47.2234 7.76221 51.2529 11.7917 51.2529 16.7622V42.0822H0V16.7622Z" fill="#8A4A38"/>
      <ellipse cx="8.05329" cy="33.2472" rx="5.02106" ry="4.906" fill="#EF9A9A"/>
      <ellipse rx="4.80899" ry="9.25664" transform="matrix(0.705106 -0.709101 0.725463 0.688261 39.4773 33.4162)" fill="#93C6EB"/>
      <rect width="16.3937" height="9.13786" transform="matrix(0.693232 -0.720714 0.73677 0.676144 19.7539 21.3155)" fill="#C2DEA3"/>
      <rect width="8.33473" height="6.24579" rx="1" transform="matrix(0.737932 0.674875 -0.691988 0.721909 10.5845 13.2612)" fill="#C49A6C"/>
      <rect x="10.0396" y="23.0503" width="7.06842" height="19.9995" fill="#F57B20"/>
      <path d="M10.0396 6.46931H17.108V23.7643C17.108 25.7061 15.5155 27.2802 13.5738 27.2802C11.632 27.2802 10.0396 25.7061 10.0396 23.7643V6.46931Z" fill="#F6A725"/>
      <rect x="9.05957" y="21.4786" width="9.03459" height="1.96354" fill="#F6EF3E"/>
      <rect x="34.1519" y="23.0503" width="7.06842" height="19.9995" fill="#F57B20"/>
      <path d="M34.1519 6.46931H41.2203V23.7643C41.2203 25.7061 39.6278 27.2802 37.6861 27.2802C35.7443 27.2802 34.1519 25.7061 34.1519 23.7643V6.46931Z" fill="#F6A725"/>
      <rect x="33.1719" y="21.4786" width="9.03459" height="1.96354" fill="#F6EF3E"/>
      <g filter="url(#filter0_d_13528_938)">
        <path d="M198.541 22.687C199.513 22.0829 200 21.1514 200 19.8927C200 18.248 199.299 16.9557 197.899 16.0159C196.538 15.0592 194.933 14.5809 193.085 14.5809C191.276 14.5809 189.623 15.1012 188.126 16.1417C186.647 17.1655 185.908 18.5333 185.908 20.2451C185.908 20.8829 186.113 21.4115 186.521 21.8311C186.929 22.2339 187.513 22.4353 188.272 22.4353C189.011 22.4353 189.575 22.2339 189.964 21.8311C190.372 21.4115 190.576 20.8829 190.576 20.2451C190.537 19.7584 190.703 19.2633 191.072 18.7599C191.442 18.2396 192.113 17.9794 193.085 17.9794C193.902 17.9962 194.486 18.1976 194.836 18.5836C195.205 18.9696 195.371 19.3556 195.332 19.7416C195.332 20.0102 195.235 20.2787 195.04 20.5472C194.846 20.8158 194.641 21.0255 194.427 21.1766C194.233 21.3276 193.912 21.5458 193.465 21.8311C193.017 22.1164 192.706 22.3178 192.531 22.4353C191.52 23.157 191.014 24.1136 191.014 25.3052C191.014 25.8926 191.228 26.3877 191.656 26.7905C192.103 27.1765 192.696 27.3695 193.435 27.3695C194.174 27.3695 194.758 27.1765 195.186 26.7905C195.633 26.3877 195.857 25.8926 195.857 25.3052C195.857 25.0534 195.906 24.8185 196.003 24.6003C196.1 24.3821 196.256 24.1807 196.47 23.9961C196.703 23.8115 196.897 23.6604 197.053 23.543C197.228 23.4255 197.481 23.2744 197.812 23.0898C198.162 22.9052 198.405 22.771 198.541 22.687Z"/>
        <path d="M173.612 27.9874L178.779 21.7371C179.309 20.9826 180.028 20.5625 180.937 20.4768C181.845 20.3739 182.64 20.5882 183.321 21.1198C184.003 21.6514 184.324 22.363 184.287 23.2547V32.2057C184.287 32.7716 184.059 33.2517 183.605 33.6461C183.17 34.0234 182.64 34.212 182.015 34.212C181.391 34.212 180.851 34.0234 180.397 33.6461C179.962 33.2517 179.744 32.7716 179.744 32.2057V26.6499L174.577 32.9002C174.047 33.6547 173.328 34.0748 172.419 34.1606C171.511 34.2634 170.716 34.0491 170.034 33.5175C169.353 32.9859 169.031 32.2743 169.069 31.3826V22.4573C169.069 21.8915 169.287 21.4113 169.722 21.0169C170.176 20.6225 170.716 20.4253 171.34 20.4253C171.965 20.4253 172.495 20.6225 172.93 21.0169C173.385 21.4113 173.612 21.8915 173.612 22.4573V27.9874Z"/>
        <path fill-rule="evenodd" clip-rule="evenodd" d="M150.381 32.1179V22.4071C150.381 21.8487 150.142 21.3688 149.665 20.9675C149.206 20.5487 148.662 20.3393 148.031 20.3393C147.42 20.3393 146.885 20.5487 146.426 20.9675C145.968 21.3688 145.739 21.8487 145.739 22.4071V22.1715C145.509 21.648 145.051 21.2031 144.363 20.8366C143.675 20.4527 142.892 20.2608 142.013 20.2608C140.294 20.2608 138.708 20.8803 137.256 22.1192C135.842 23.3581 135.136 25.0595 135.136 27.2233C135.136 29.4394 135.833 31.1582 137.227 32.3797C138.622 33.6012 140.217 34.2119 142.013 34.2119C142.892 34.2119 143.666 34.0549 144.334 33.7408C145.003 33.4092 145.49 33.0166 145.796 32.5629C145.91 33.034 146.178 33.4267 146.598 33.7408C147.019 34.0374 147.496 34.1857 148.031 34.1857C148.662 34.1857 149.206 33.9851 149.665 33.5837C150.142 33.1824 150.381 32.6938 150.381 32.1179ZM143.052 30.3335C144.618 30.3335 145.888 28.99 145.888 27.3328C145.888 25.6755 144.618 24.3321 143.052 24.3321C141.486 24.3321 140.216 25.6755 140.216 27.3328C140.216 28.99 141.486 30.3335 143.052 30.3335Z"/>
        <path d="M129.097 25.3703V22.5636C129.097 21.9933 129.333 21.5094 129.806 21.112C130.279 20.6972 130.831 20.4899 131.462 20.4899C132.092 20.4899 132.644 20.6972 133.117 21.112C133.59 21.5094 133.827 21.9933 133.827 22.5636V32.1803C133.827 32.7506 133.59 33.2345 133.117 33.6319C132.664 34.0294 132.112 34.2281 131.462 34.2281C130.811 34.2281 130.25 34.0294 129.777 33.6319C129.323 33.2345 129.097 32.7506 129.097 32.1803V29.3321H123.982V32.1803C123.982 32.7506 123.745 33.2345 123.272 33.6319C122.819 34.0294 122.267 34.2281 121.617 34.2281C120.966 34.2281 120.405 34.0294 119.932 33.6319C119.478 33.2345 119.252 32.7506 119.252 32.1803V22.5636C119.252 21.9933 119.488 21.5094 119.961 21.112C120.434 20.6972 120.986 20.4899 121.617 20.4899C122.247 20.4899 122.799 20.6972 123.272 21.112C123.745 21.5094 123.982 21.9933 123.982 22.5636V25.3703H129.097Z"/>
        <path d="M116.878 20.4899C117.342 20.4899 117.739 20.6617 118.07 21.0053C118.401 21.349 118.566 22.1411 118.566 22.6222C118.566 23.1033 118.401 23.6007 118.07 23.9444C117.739 24.288 117.342 24.4089 116.878 24.4089H112.914V32.2298C112.914 33.7099 111.583 34.2282 110.248 34.2282C109.01 34.2282 107.827 33.5724 107.827 32.2437L107.868 20.4899C107.868 20.4899 114.775 20.4899 116.878 20.4899Z"/>
        <path d="M88.598 14.5809V32.0428C88.598 32.6187 88.2781 33.1072 87.8347 33.5085C87.4098 33.9099 86.742 34.1105 86.1323 34.1105C85.5227 34.1105 84.6414 33.9099 84.198 33.5085C83.7731 33.1072 83.5606 32.6186 83.5606 32.0427V18.5223H76.4283V32.0427C76.4283 32.6186 76.2066 33.1072 75.7632 33.5085C75.3383 33.9099 74.4732 34.1105 73.8635 34.1105C73.2539 34.1105 72.4548 33.9099 72.0114 33.5085C71.5865 33.1072 71.374 32.6186 71.374 32.0427V14.5809C77.0826 14.5809 88.598 14.5809 88.598 14.5809Z"/>
        <path d="M104.385 32.0866C102.942 33.4105 101.012 34.0725 98.5936 34.0725C96.1755 34.0725 94.2558 33.4105 92.8346 32.0866C91.3709 30.743 90.6391 29.0634 90.6391 27.0479C90.6391 25.0127 91.3709 23.3331 92.8346 22.0092C94.2558 20.6853 96.1755 20.0234 98.5936 20.0234C101.012 20.0234 102.942 20.6853 104.385 22.0092C105.827 23.3529 106.548 25.0324 106.548 27.0479C106.548 29.0634 105.827 30.743 104.385 32.0866ZM100.63 24.9732C100.227 24.5582 99.7285 24.3112 99.1346 24.2322C98.5618 24.1334 98.0103 24.1828 97.48 24.3804C96.9709 24.578 96.5361 24.9139 96.1755 25.3881C95.8361 25.8623 95.6876 26.4156 95.73 27.0479C95.73 27.8778 95.9952 28.5694 96.5255 29.1227C97.077 29.6562 97.7664 29.9229 98.5936 29.9229C99.4421 29.9229 100.132 29.6661 100.662 29.1523C101.192 28.6188 101.457 27.9173 101.457 27.0479C101.457 26.218 101.182 25.5264 100.63 24.9732Z"/>
        <path d="M157.154 20.4253C159.866 20.4253 167.092 20.4647 167.092 20.4647C167.092 20.4647 167.097 29.0977 167.097 32.1146C167.097 32.6941 166.853 33.1936 166.366 33.6132C165.9 34.0129 165.479 34.2127 164.769 34.2127C164.06 34.2127 163.698 34.2652 163.211 33.8656C162.745 33.446 162.317 32.6941 162.317 32.1146V24.3218H159.025C159.025 29.908 159.026 31.1353 156.921 33.1337C156.145 33.853 155.147 34.2127 153.928 34.2127C153.196 34.2127 152.767 34.0412 152.301 33.6416C151.835 33.222 151.474 32.5523 151.474 31.9329C151.474 30.5995 151.76 30.0689 152.492 29.199C154.591 29.199 154.5 28.7019 154.368 24.9212V22.5234C154.391 21.9439 154.5 20.4253 154.5 20.4253C154.5 20.4253 156.511 20.4253 157.154 20.4253Z"/>
        <path d="M196.194 31.2747C196.194 32.8968 194.788 34.2118 193.053 34.2118C191.318 34.2118 189.912 32.8968 189.912 31.2747C189.912 29.6525 191.318 28.3375 193.053 28.3375C194.788 28.3375 196.194 29.6525 196.194 31.2747Z"/>
      </g>
      <defs>
        <filter id="filter0_d_13528_938" x="69.374" y="13.5809" width="132.625" height="23.6473" filterUnits="userSpaceOnUse" color-interpolation-filters="sRGB">
          <feFlood flood-opacity="0" result="BackgroundImageFix"/>
          <feColorMatrix in="SourceAlpha" type="matrix" values="0 0 0 0 0 0 0 0 0 0 0 0 0 0 0 0 0 0 127 0" result="hardAlpha"/>
          <feOffset dy="1"/>
          <feGaussianBlur stdDeviation="1"/>
          <feColorMatrix type="matrix" values="0 0 0 0 0 0 0 0 0 0 0 0 0 0 0 0 0 0 0.3 0"/>
          <feBlend mode="normal" in2="BackgroundImageFix" result="effect1_dropShadow_13528_938"/>
          <feBlend mode="normal" in="SourceGraphic" in2="effect1_dropShadow_13528_938" result="shape"/>
        </filter>
      </defs>
    </symbol>
  <!-- logo-desktop end -->

</svg>
