<svg xmlns="http://www.w3.org/2000/svg">
  <symbol id="icon-menu" fill="currentColor" viewBox="0 0 25 11">
    <rect width="25" height="3" rx="1.5"/>
    <rect y="8" width="25" height="3" rx="1.5"/>
  </symbol>
  <symbol id="icon-menu-close" fill="currentColor" viewBox="0 0 20 20">
    <rect width="23.8906" height="2.0318" rx="1.0159" transform="matrix(0.69604 0.718003 -0.69604 0.718003 1.97168 0.988155)" fill="#CCCCCC"/>
    <rect width="23.8906" height="2.0318" rx="1.0159" transform="matrix(0.69604 -0.718003 0.69604 0.718003 -0.399414 17.754)" fill="#CCCCCC"/>
  </symbol>
  <symbol id="authorization-phone" viewBox="0 0 19 19">
    <path d="M9.77423 8.22389C9.77423 8.41289 9.92786 8.56139 10.1156 8.56139C10.5048 8.56139 10.8189 8.87526 10.8189 9.25664C10.8189 9.44226 10.9725 9.59414 11.1602 9.59414C11.348 9.59414 11.5016 9.44226 11.5016 9.25664C11.5016 8.50064 10.8803 7.88639 10.1156 7.88639C9.92786 7.88639 9.77423 8.03827 9.77423 8.22389ZM15.3319 9.59414C15.5231 9.59414 15.6733 9.44226 15.6733 9.25664C15.6733 6.22589 13.1812 3.76215 10.1156 3.76215C9.92786 3.76215 9.77423 3.914 9.77423 4.09965C9.77423 4.28527 9.92786 4.43715 10.1156 4.43715C12.8057 4.43715 14.9905 6.60051 14.9905 9.25664C14.9905 9.44226 15.1441 9.59414 15.3319 9.59414Z" fill="#161C35"/>
    <path d="M12.9047 9.25661C12.9047 9.44223 13.0583 9.59411 13.2461 9.59411C13.4338 9.59411 13.5874 9.44223 13.5874 9.25661C13.5874 7.36324 12.0307 5.82424 10.1156 5.82424C9.92786 5.82424 9.77423 5.97612 9.77423 6.16174C9.77423 6.35074 9.92786 6.49924 10.1156 6.49924C11.6552 6.49924 12.9047 7.73786 12.9047 9.25661ZM10.1156 1.69998C9.92786 1.69998 9.77423 1.85186 9.77423 2.03748C9.77423 2.22312 9.92786 2.37498 10.1156 2.37498C13.9561 2.37498 17.0798 5.46312 17.0798 9.25661C17.0798 9.44223 17.23 9.59411 17.4211 9.59411C17.6089 9.59411 17.7625 9.44223 17.7625 9.25661C17.7625 5.0885 14.3316 1.69998 10.1156 1.69998ZM13.4509 12.8139L13.0037 13.0535C12.2492 13.4619 11.6621 14.5812 10.7311 13.7375L8.30007 11.3L6.2 9.25661C5.14491 7.92348 6.32631 7.60623 6.73936 6.85699L6.98175 6.41825C7.25485 5.91873 7.35384 5.35849 7.27191 4.79823C7.1934 4.23799 6.93737 3.72836 6.52771 3.32336C6.02931 2.83062 5.36703 2.56062 4.66038 2.56062C3.95372 2.56062 3.28802 2.83062 2.7896 3.32336L2.61552 3.49886C1.69379 4.41012 1.58796 5.97948 2.3151 7.92348C3.00126 9.77973 4.38386 11.7912 6.2 13.5867C8.96858 16.3239 12.0512 17.9 14.2634 17.9C15.1373 17.9 15.8781 17.6536 16.4038 17.1339L16.5813 16.9584C17.0763 16.469 17.3529 15.8142 17.3563 15.1089C17.3529 14.4204 17.0695 13.7454 16.5813 13.2627C15.7586 12.4494 14.4716 12.2671 13.4509 12.8139Z" fill="#161C35"/>
  </symbol>
  <symbol id="authorization-email" viewBox="0 0 19 17">
    <path d="M2.01661 3.32528L8.76661 7.55572C8.99341 7.69747 9.28681 7.76467 9.58201 7.76467C9.87721 7.76467 10.1706 7.69747 10.3974 7.55572L17.1474 3.32528C17.5875 3.04913 18.0033 1.97498 17.196 1.97498H1.96891C1.16161 1.97498 1.57741 3.04913 2.01661 3.32528ZM17.3517 5.63842L10.3974 9.86677C10.0914 10.0537 9.87721 10.0757 9.58201 10.0757C9.28681 10.0757 9.07261 10.0537 8.76661 9.86677C8.46061 9.67987 2.34691 5.94082 1.84741 5.63737C1.49641 5.42317 1.50001 5.67412 1.50001 5.86732V13.525C1.50001 13.966 2.00941 14.575 2.40001 14.575H16.8C17.1906 14.575 17.7 13.966 17.7 13.525V5.86837C17.7 5.67517 17.7036 5.42422 17.3517 5.63842Z" fill="#161C35"/>
  </symbol>
  <symbol id="icon-button" viewBox="0 0 14 14">
    <path d="M10.2937 7L0.160839 13.0622V0.937822L10.2937 7Z" fill="#1D2E5B"/>
  </symbol>
  <symbol id="icon-status" fill="currentColor" viewBox="0 0 6 6">
    <circle cx="3" cy="3.5" r="3"/>
  </symbol>
  <symbol id="icon-airplane" viewBox="0 0 21 22">
    <g clip-path="url(#clip0_58_80)">
      <path d="M16.7831 2.09314C16.0546 2.26635 15.3227 2.44038 15.0504 2.91723L12.9433 7.11585L1.62916 9.8059L1.17076 11.1474L9.82861 11.9662L8.35967 15.6009L5.07624 16.3816L4.25187 17.8101L6.62062 18.0673L6.89073 19.2357C7.01174 19.6498 7.43649 19.9263 7.79903 19.8401L8.89351 19.5799L10.1622 21.7433L10.9866 20.3148L10.1763 16.8098L12.5535 13.7795L17.0895 21.741L18.0042 20.7031L15.2128 8.62921L17.7762 4.73424C18.0519 4.25657 17.8721 3.47891 17.6914 2.69759C17.6019 2.31059 17.1457 2.00694 16.7831 2.09314Z" fill="#101D41"/>
    </g>
    <defs>
      <clipPath id="clip0_58_80">
        <rect width="20.8265" height="21.12" fill="white" transform="translate(0 0.959961)"/>
      </clipPath>
    </defs>
  </symbol>
  <symbol id="icon-automobile" viewBox="0 0 17 19 ">
    <g clip-path="url(#clip0_58_81)">
      <path d="M4.34047 13.9485C4.34047 13.5699 4.20186 13.2467 3.92463 12.9788C3.64741 12.711 3.31289 12.5771 2.92108 12.5771C2.52927 12.5771 2.19475 12.711 1.91752 12.9788C1.6403 13.2467 1.50168 13.5699 1.50168 13.9485C1.50168 14.3271 1.6403 14.6503 1.91752 14.9181C2.19475 15.186 2.52927 15.3199 2.92108 15.3199C3.31289 15.3199 3.64741 15.186 3.92463 14.9181C4.20186 14.6503 4.34047 14.3271 4.34047 13.9485ZM15.6956 13.9485C15.6956 13.5699 15.557 13.2467 15.2798 12.9788C15.0026 12.711 14.668 12.5771 14.2762 12.5771C13.8844 12.5771 13.5499 12.711 13.2727 12.9788C12.9955 13.2467 12.8568 13.5699 12.8568 13.9485C12.8568 14.3271 12.9955 14.6503 13.2727 14.9181C13.5499 15.186 13.8844 15.3199 14.2762 15.3199C14.668 15.3199 15.0026 15.186 15.2798 14.9181C15.557 14.6503 15.6956 14.3271 15.6956 13.9485ZM15.1855 9.70563L14.3871 5.59135C14.3502 5.42706 14.267 5.29313 14.1376 5.18956C14.0082 5.08599 13.8585 5.0342 13.6885 5.0342H3.5088C3.33877 5.0342 3.18906 5.08599 3.05969 5.18956C2.93032 5.29313 2.84715 5.42706 2.81019 5.59135L2.01178 9.70563C1.97482 9.91992 2.02656 10.1092 2.16703 10.2735C2.30749 10.4378 2.48861 10.5199 2.71039 10.5199H14.4869C14.7087 10.5199 14.8898 10.4378 15.0303 10.2735C15.1707 10.1092 15.2225 9.91992 15.1855 9.70563ZM12.6794 3.14849C12.6794 3.00563 12.6277 2.88421 12.5242 2.78421C12.4207 2.68421 12.295 2.63421 12.1471 2.63421H5.05017C4.90232 2.63421 4.77664 2.68421 4.67314 2.78421C4.56965 2.88421 4.5179 3.00563 4.5179 3.14849C4.5179 3.29135 4.56965 3.41278 4.67314 3.51278C4.77664 3.61278 4.90232 3.66278 5.05017 3.66278H12.1471C12.295 3.66278 12.4207 3.61278 12.5242 3.51278C12.6277 3.41278 12.6794 3.29135 12.6794 3.14849ZM17.115 10.9163V17.3771H15.6956V18.7485C15.6956 19.1271 15.557 19.4503 15.2798 19.7181C15.0026 19.986 14.668 20.1199 14.2762 20.1199C13.8844 20.1199 13.5499 19.986 13.2727 19.7181C12.9955 19.4503 12.8568 19.1271 12.8568 18.7485V17.3771H4.34047V18.7485C4.34047 19.1271 4.20186 19.4503 3.92463 19.7181C3.64741 19.986 3.31289 20.1199 2.92108 20.1199C2.52927 20.1199 2.19475 19.986 1.91752 19.7181C1.6403 19.4503 1.50168 19.1271 1.50168 18.7485V17.3771H0.0822906V10.9163C0.0822906 10.1163 0.174699 9.31992 0.359516 8.52706L1.50168 3.66278C1.56822 3.10563 1.92861 2.61635 2.58286 2.19492C3.23712 1.77349 4.08727 1.45564 5.13334 1.24135C6.1794 1.02706 7.33451 0.919922 8.59866 0.919922C9.8628 0.919922 11.0179 1.02706 12.064 1.24135C13.11 1.45564 13.9602 1.77349 14.6144 2.19492C15.2687 2.61635 15.6291 3.10563 15.6956 3.66278L16.86 8.52706C17.03 9.25563 17.115 10.0521 17.115 10.9163Z" fill="#1D2E5B"/>
    </g>
    <defs>
      <clipPath id="clip0_58_81">
        <rect width="17.0398" height="19.2" fill="white" transform="translate(0.0795898 0.919922)"/>
      </clipPath>
    </defs>
  </symbol>
  <symbol id="icon-bike" viewBox="0 0 24 24">
    <path d="M18.3075 21C17.4664 21 16.6443 20.7471 15.9449 20.2732C15.2456 19.7994 14.7005 19.1258 14.3787 18.3378C14.0568 17.5498 13.9726 16.6827 14.1367 15.8462C14.3008 15.0096 14.7058 14.2412 15.3005 13.6381C15.8952 13.035 16.653 12.6243 17.4779 12.4579C18.3028 12.2915 19.1579 12.3769 19.9349 12.7033C20.712 13.0297 21.3761 13.5824 21.8434 14.2916C22.3107 15.0008 22.5601 15.8346 22.5601 16.6875C22.5589 17.8309 22.1104 18.927 21.3132 19.7355C20.5159 20.544 19.435 20.9988 18.3075 21ZM18.3075 13.875C17.759 13.875 17.2228 14.04 16.7667 14.349C16.3106 14.658 15.9551 15.0973 15.7452 15.6112C15.5353 16.1251 15.4804 16.6906 15.5874 17.2362C15.6944 17.7818 15.9586 18.2829 16.3464 18.6762C16.7343 19.0696 17.2285 19.3374 17.7665 19.446C18.3045 19.5545 18.8621 19.4988 19.3689 19.2859C19.8756 19.073 20.3088 18.7126 20.6135 18.25C20.9183 17.7875 21.0809 17.2438 21.0809 16.6875C21.0801 15.9418 20.7876 15.227 20.2677 14.6997C19.7477 14.1725 19.0428 13.8759 18.3075 13.875Z" fill="#1D2E5B"/>
    <path d="M6.10452 21C5.26345 21 4.44126 20.7471 3.74193 20.2732C3.0426 19.7994 2.49753 19.1258 2.17567 18.3378C1.8538 17.5498 1.76959 16.6827 1.93367 15.8462C2.09776 15.0096 2.50278 14.2412 3.09751 13.6381C3.69224 13.035 4.44997 12.6243 5.27489 12.4579C6.09981 12.2915 6.95486 12.3769 7.73191 12.7033C8.50896 13.0297 9.17312 13.5824 9.6404 14.2916C10.1077 15.0008 10.3571 15.8346 10.3571 16.6875C10.3559 17.8309 9.90743 18.927 9.11019 19.7355C8.31294 20.544 7.232 20.9988 6.10452 21ZM6.10452 13.875C5.556 13.875 5.01978 14.04 4.5637 14.349C4.10761 14.658 3.75214 15.0973 3.54223 15.6112C3.33231 16.1251 3.27739 16.6906 3.3844 17.2362C3.49142 17.7818 3.75556 18.2829 4.14343 18.6762C4.5313 19.0696 5.02547 19.3374 5.56346 19.446C6.10145 19.5545 6.65909 19.4988 7.16586 19.2859C7.67264 19.073 8.10579 18.7126 8.41053 18.25C8.71528 17.7875 8.87794 17.2438 8.87794 16.6875C8.87708 15.9418 8.58461 15.227 8.06468 14.6997C7.54475 14.1725 6.83982 13.8759 6.10452 13.875Z" fill="#1D2E5B"/>
    <path d="M15.1643 6.00005C15.3591 6.00073 15.5522 5.96225 15.7322 5.88681C15.9123 5.81138 16.0758 5.7005 16.2134 5.56058C16.3509 5.42065 16.4598 5.25447 16.5336 5.07163C16.6074 4.88879 16.6448 4.69293 16.6435 4.49536C16.6456 4.29878 16.6091 4.10374 16.5361 3.92164C16.463 3.73954 16.3549 3.57403 16.218 3.4348C16.0812 3.29558 15.9183 3.18542 15.739 3.11077C15.5596 3.03612 15.3674 2.99848 15.1736 3.00005C14.9793 2.99943 14.7869 3.03762 14.6072 3.11243C14.4275 3.18725 14.2641 3.29722 14.1263 3.43607C13.9885 3.57493 13.8791 3.73994 13.8042 3.92169C13.7293 4.10344 13.6904 4.29838 13.6898 4.49536C13.6892 4.69234 13.7268 4.88752 13.8006 5.06974C13.8744 5.25197 13.9828 5.41767 14.1198 5.55739C14.2567 5.69712 14.4194 5.80812 14.5986 5.88407C14.7779 5.96002 14.9701 5.99943 15.1643 6.00005Z" fill="#1D2E5B"/>
    <path d="M17.3623 9.00003H15.3395C15.3063 9.00004 15.2738 8.99099 15.2452 8.97384C15.2167 8.95668 15.1932 8.93205 15.1773 8.90253L13.7101 6.17581C13.6068 5.97318 13.4578 5.79807 13.2753 5.66467C13.0928 5.53127 12.8819 5.44333 12.6596 5.40795C12.4374 5.37258 12.21 5.39077 11.996 5.46106C11.7819 5.53135 11.5872 5.65175 11.4276 5.81253L8.19845 9.11253C7.92716 9.39333 7.77317 9.76945 7.76857 10.1625C7.76857 10.9782 8.35099 11.2688 8.6237 11.4328C9.94107 12.2025 10.8688 12.7655 11.3777 13.0782C11.4048 13.0949 11.4271 13.1183 11.4427 13.1463C11.4582 13.1743 11.4664 13.2059 11.4665 13.238V16.478C11.4665 16.8816 11.7724 17.228 12.1704 17.2482C12.2704 17.253 12.3702 17.2373 12.464 17.2019C12.5577 17.1666 12.6434 17.1123 12.7159 17.0423C12.7884 16.9724 12.8461 16.8883 12.8856 16.7951C12.925 16.7018 12.9455 16.6015 12.9456 16.5V12.4688C12.9457 12.3497 12.9178 12.2324 12.8643 12.1264C12.8107 12.0204 12.7331 11.9289 12.6378 11.8594L10.9275 10.6121C10.906 10.5965 10.8881 10.5764 10.8749 10.5532C10.8617 10.53 10.8536 10.5043 10.851 10.4776C10.8485 10.451 10.8516 10.4241 10.8602 10.3988C10.8687 10.3734 10.8825 10.3503 10.9007 10.3308L12.8421 8.23128C12.862 8.20968 12.8866 8.19316 12.914 8.18307C12.9414 8.17297 12.9708 8.1696 12.9997 8.17321C13.0287 8.17682 13.0564 8.18731 13.0805 8.20384C13.1047 8.22037 13.1247 8.24246 13.1388 8.26831L14.1474 10.1143C14.2115 10.2313 14.3053 10.3288 14.4191 10.3966C14.5329 10.4644 14.6625 10.5001 14.7945 10.5H17.3831C17.4833 10.5002 17.5824 10.4796 17.6746 10.4397C17.7667 10.3998 17.8499 10.3413 17.919 10.2678C17.9882 10.1942 18.0419 10.1073 18.0769 10.012C18.1119 9.91685 18.1275 9.81542 18.1226 9.71394C18.1032 9.31035 17.7602 9.00003 17.3623 9.00003Z" fill="#1D2E5B"/>
  </symbol>
  <symbol id="icon-pedestrian" viewBox="0 0 21 23">
    <path d="M14.9758 5.75992C15.9264 5.75992 16.697 4.90031 16.697 3.83992C16.697 2.77954 15.9264 1.91992 14.9758 1.91992C14.0253 1.91992 13.2547 2.77954 13.2547 3.83992C13.2547 4.90031 14.0253 5.75992 14.9758 5.75992Z" fill="#1D2E5B"/>
    <path d="M13.9234 10.5302C14.1209 10.8586 14.4043 11.1113 14.735 11.2538C15.0657 11.3964 15.4277 11.4219 15.7719 11.327L18.6257 10.5312L18.21 8.66881L15.3563 9.46465L14.1695 7.48033C13.9159 7.05655 13.5224 6.76184 13.0748 6.66049L9.76496 5.92129C9.39468 5.83839 9.01024 5.89379 8.671 6.07893C8.33176 6.26406 8.0566 6.56863 7.888 6.94561L6.46113 10.129L8.00074 10.9882L9.42761 7.80385L11.1204 8.18209L6.74341 16.32H2.92752V18.24H6.74341C7.3441 18.24 7.90952 17.8829 8.21933 17.3078L9.86996 14.2397L14.3184 15.2323L15.8812 20.4634L17.5129 19.8557L15.9509 14.6256C15.8545 14.3045 15.684 14.0174 15.4564 13.7933C15.2289 13.5691 14.9524 13.4158 14.6549 13.3488L12.0395 12.7661L13.5645 9.93025L13.9234 10.5302Z" fill="#1D2E5B"/>
  </symbol>
  <symbol id="icon-tariffs" viewBox="0 0 68 68">
    <circle cx="34" cy="34" r="34" fill="#E2E5F2"/>
    <path d="M43.3758 43.2418V39.8933C43.3758 38.9558 43.2418 38.0182 42.7061 37.0806C42.1703 36.143 41.5006 35.3394 40.5631 34.8036C39.6255 34.1339 37.6164 34 36.6788 34L34.5358 36.277L35.3394 38.0182V42.0364L34 43.5097L32.6606 42.0364V38.0182L33.5982 36.277L31.3212 34C30.2497 34 28.2406 34.1339 27.3031 34.8036C26.3655 35.3394 25.8297 36.143 25.294 37.0806C24.7582 38.0182 24.6243 38.8218 24.6243 39.8933V43.2418C24.6243 43.2418 28.1067 44.7151 34 44.7151C39.8934 44.7151 43.3758 43.2418 43.3758 43.2418Z" fill="#132576"/>
    <path d="M34 23.4189C31.4551 23.4189 29.9818 25.8299 30.3836 28.5086C30.7854 31.1874 32.1248 33.0626 34 33.0626C35.8751 33.0626 37.2145 31.1874 37.6163 28.5086C38.0181 25.6959 36.5448 23.4189 34 23.4189Z" fill="#132576"/>
  </symbol>
  <symbol id="icon-phone" viewBox="0 0 18 17">
    <path fill-rule="evenodd" clip-rule="evenodd" d="M9.5 1.08594C6.70355 1.08594 3.90038 1.55861 2.88327 2.50071C2.03939 3.2823 1.75809 4.66308 1.66326 5.53732C1.66326 5.53732 1.6502 5.62371 1.6502 5.66087C1.6502 6.0037 1.9445 6.27866 2.30432 6.27866C2.34683 6.27866 3.92007 6.15816 4.86856 6.08404C4.89139 6.08091 4.91439 6.07785 4.93721 6.0717C5.29048 6.06248 5.5751 5.79059 5.5751 5.45392L5.57827 4.23679C5.57827 3.85993 5.90219 3.55716 6.30125 3.55716H12.6987C13.0978 3.55716 13.4218 3.8599 13.4218 4.23679L13.425 5.45392C13.425 5.79059 13.7096 6.06248 14.0628 6.0717C14.0855 6.07789 14.1085 6.08091 14.1316 6.08404C15.0801 6.15812 16.6533 6.27866 16.6957 6.27866C17.0554 6.27866 17.3499 6.0037 17.3499 5.66087C17.3499 5.62371 17.3368 5.53732 17.3368 5.53732C17.2419 4.66308 16.961 3.28234 16.1171 2.50071C15.0996 1.55861 12.2964 1.08594 9.5 1.08594ZM9.5 9.11752C8.77715 9.11752 8.19169 9.67043 8.19169 10.3531C8.19169 11.0358 8.77715 11.5887 9.5 11.5887C10.2228 11.5887 10.8083 11.0358 10.8083 10.3531C10.8083 9.67043 10.2228 9.11752 9.5 9.11752ZM8.51878 6.33731V5.56506C8.51878 5.13881 8.15241 4.79282 7.70111 4.79282C7.24982 4.79282 6.88345 5.13884 6.88345 5.56506V6.33731L2.471 10.7887C2.16694 11.0698 1.97718 11.462 1.97718 11.8946V13.1333C1.97718 13.816 2.56269 14.3689 3.2855 14.3689H3.61259V15.1412C3.61259 15.5675 3.979 15.9134 4.4303 15.9134C4.88159 15.9134 5.24797 15.5675 5.24797 15.1412V14.3689H13.752V15.1412C13.752 15.5675 14.1183 15.9134 14.5698 15.9134C15.0211 15.9134 15.3874 15.5675 15.3874 15.1412V14.3689H15.7145C16.4373 14.3689 17.0227 13.816 17.0227 13.1333V11.8946C17.0227 11.462 16.833 11.0698 16.5289 10.7887L12.1167 6.33731V5.56506C12.1167 5.13881 11.7502 4.79282 11.2989 4.79282C10.8476 4.79282 10.4813 5.13884 10.4813 5.56506V6.33731H8.51878ZM9.5 7.88189C10.9457 7.88189 12.1167 8.98777 12.1167 10.3531C12.1167 11.7185 10.9457 12.8244 9.5 12.8244C8.05431 12.8244 6.88341 11.7185 6.88341 10.3531C6.88341 8.98774 8.05431 7.88189 9.5 7.88189Z" fill="#FFD74B"/>
  </symbol>
  <symbol id="icon-email" viewBox="0 0 19 13">
    <path fill-rule="evenodd" clip-rule="evenodd" d="M16.1393 10.4663L11.8089 6.5L16.1393 2.53365L15.5488 1.90264L9.25 7.67188L2.95119 1.90264L2.36068 2.53365L6.69111 6.5L2.36068 10.4663L2.95119 11.0974L7.33083 7.08594L9.25 8.84375L11.1692 7.08594L15.5488 11.0974L16.1393 10.4663ZM1.57596 0.25C0.766943 0.25 0.111107 0.948839 0.111107 1.80786V11.1921C0.111107 12.0525 0.761623 12.75 1.57596 12.75H16.924C17.733 12.75 18.3889 12.0512 18.3889 11.1921V1.80786C18.3889 0.947478 17.7384 0.25 16.924 0.25H1.57596Z" fill="#FFD74B"/>
  </symbol>
  <symbol id="icon-location" viewBox="0 0 21 21">
    <path d="M10.5 0C6.15169 0 2.625 3.52669 2.625 7.875C2.625 12.9334 6.42846 15.1449 7.26923 16.1538C9.28846 18.5769 9.40257 21 10.5 21C11.5974 21 11.7115 18.5769 13.7308 16.1538C14.5715 15.1449 18.375 12.9334 18.375 7.875C18.375 3.52669 14.8483 0 10.5 0ZM10.5 13.125C7.60069 13.125 5.25 10.7743 5.25 7.875C5.25 4.97569 7.60069 2.625 10.5 2.625C13.3993 2.625 15.75 4.97569 15.75 7.875C15.75 10.7743 13.3993 13.125 10.5 13.125ZM10.5 5.25C9.051 5.25 7.875 6.426 7.875 7.875C7.875 9.324 9.051 10.5 10.5 10.5C11.949 10.5 13.125 9.324 13.125 7.875C13.125 6.426 11.949 5.25 10.5 5.25Z" fill="#FFD74B"/>
    <ellipse cx="10.5" cy="7.875" rx="0.875001" ry="0.875" fill="#161C35"/>
  </symbol>
  <symbol id="icon-telegram" viewBox="0 0 21 19">
    <path d="M20.1242 0.686884C19.9155 0.513923 19.6639 0.400652 19.3961 0.359081C19.1283 0.31751 18.8542 0.349187 18.6029 0.450754L1.26387 7.45043C0.983684 7.56557 0.74514 7.76321 0.579909 8.0171C0.414678 8.271 0.330575 8.56914 0.338765 8.87196C0.346955 9.17477 0.44705 9.46793 0.625763 9.71253C0.804476 9.95712 1.05335 10.1416 1.33936 10.2414L5.08065 11.5401L7.10807 18.2427C7.11194 18.2562 7.12452 18.2649 7.13033 18.2775C7.15121 18.331 7.18172 18.3802 7.22033 18.4227C7.27899 18.4882 7.35471 18.5361 7.43904 18.5611C7.44871 18.5649 7.45549 18.5737 7.46516 18.5756H7.47097L7.47387 18.5766C7.54874 18.5927 7.62654 18.5887 7.69936 18.5649C7.7071 18.563 7.71484 18.563 7.72355 18.5601C7.79347 18.5356 7.85674 18.4952 7.90839 18.442C7.9142 18.4353 7.92387 18.4343 7.92968 18.4285L10.8455 15.2098L15.1006 18.5049C15.359 18.7072 15.6774 18.8166 16.0055 18.8166C16.7158 18.8166 17.3284 18.3191 17.4745 17.6253L20.6313 2.12398C20.6848 1.86083 20.666 1.58807 20.5766 1.33481C20.4873 1.08155 20.331 0.857277 20.1242 0.685916V0.686884ZM8.16581 12.8127L7.48162 16.1388L6.0542 11.4182L13.1332 7.73108L8.29742 12.5679C8.23046 12.6348 8.18468 12.7199 8.16581 12.8127V12.8127ZM16.5261 17.4308C16.508 17.5185 16.4675 17.6001 16.4087 17.6677C16.3499 17.7354 16.2747 17.7867 16.1903 17.8169C16.108 17.8486 16.0188 17.8583 15.9316 17.845C15.8444 17.8318 15.7621 17.7961 15.6929 17.7414L11.0836 14.1714C10.9872 14.097 10.8663 14.0617 10.7451 14.0724C10.6238 14.0832 10.5111 14.1393 10.4294 14.2295L8.4 16.4659L9.08323 13.1495L16.0403 6.1914C16.1218 6.10966 16.1714 6.00149 16.1801 5.88641C16.1888 5.77132 16.1561 5.65691 16.0879 5.56382C16.0197 5.47073 15.9205 5.40508 15.8081 5.37873C15.6957 5.35237 15.5777 5.36705 15.4752 5.42011L5.44645 10.644L1.65581 9.32592C1.5553 9.29273 1.46764 9.22903 1.40503 9.14369C1.34241 9.05835 1.30796 8.95562 1.30645 8.84979C1.30163 8.74302 1.33016 8.63739 1.38808 8.54757C1.446 8.45774 1.53044 8.38817 1.62968 8.3485L18.9658 1.34882C19.0546 1.31107 19.1523 1.29887 19.2477 1.31357C19.3431 1.32827 19.4325 1.3693 19.5058 1.43205C19.5787 1.49107 19.6338 1.5692 19.6649 1.65772C19.696 1.74624 19.7019 1.84166 19.6819 1.93334L16.5261 17.4317V17.4308Z" fill="black"/>
  </symbol>
  <symbol id="icon-vkontakte" viewBox="0 0 30 16">
    <path d="M24.8332 15.7888C24.0954 15.7722 23.3762 15.5543 22.7532 15.1588C22.1028 14.7192 21.5055 14.2058 20.9732 13.6288C20.5332 13.1888 19.8032 12.4488 19.5232 12.4488C19.2432 12.4488 19.0432 13.3688 19.0532 14.0188C19.0574 14.4674 18.8892 14.9006 18.5832 15.2288C18.2352 15.513 17.8105 15.6871 17.3632 15.7288H15.4432C12.6836 15.6681 10.0412 14.6012 8.01316 12.7288C4.33316 9.35876 1.17316 2.91876 1.04316 2.63876C0.919163 2.40485 0.867235 2.13944 0.893931 1.87604C0.920627 1.61263 1.02475 1.36304 1.19316 1.15876C1.5743 0.840905 2.05695 0.670559 2.55316 0.678762H6.63316H6.75316C7.09074 0.728014 7.41432 0.847226 7.70316 1.02876C7.97498 1.21103 8.19262 1.46321 8.33316 1.75876C8.76434 2.68183 9.25885 3.57396 9.81316 4.42876C11.1232 6.42876 11.7032 6.88876 11.9132 6.98876C12.1468 6.05102 12.2111 5.07911 12.1032 4.11876C12.1382 3.68137 12.0661 3.24203 11.8932 2.83876C11.6736 2.66314 11.404 2.56161 11.1232 2.54876L10.3932 1.85876C10.2532 1.19876 10.9832 0.628762 11.4932 0.408762C12.5109 0.0898602 13.5787 -0.0389531 14.6432 0.0287625H15.3532C16.0752 0.00995973 16.797 0.0770979 17.5032 0.228762C19.2032 0.588763 19.1432 1.95876 19.0732 3.53876C19.0732 3.99876 19.0232 4.53876 19.0232 5.15876C19.0232 5.30876 19.0232 5.46876 19.0232 5.63876C18.9838 6.07412 19.0142 6.51297 19.1132 6.93876C19.9457 6.24231 20.6468 5.40239 21.1832 4.45876C21.7621 3.5665 22.2703 2.63031 22.7032 1.65876V1.65876C22.835 1.35148 23.061 1.09395 23.3485 0.923242C23.636 0.75253 23.9703 0.677434 24.3032 0.708763H28.5832C28.7095 0.696702 28.8368 0.696702 28.9632 0.708763C29.9632 0.708763 30.5532 0.998762 30.7932 1.55876C31.0332 2.11876 30.9632 3.21876 28.4332 6.16876L27.4332 7.29876C26.9487 7.7692 26.5314 8.30424 26.1932 8.88876C26.5719 9.31934 27.0018 9.70216 27.4732 10.0288C28.6224 10.8948 29.6339 11.9298 30.4732 13.0988C30.67 13.3261 30.7988 13.6042 30.8447 13.9014C30.8907 14.1985 30.8521 14.5026 30.7332 14.7788C30.5236 15.0846 30.2432 15.3353 29.9159 15.5094C29.5885 15.6836 29.2239 15.776 28.8532 15.7788L25.0632 15.8288L24.8332 15.7888ZM19.5232 10.9488C20.4232 10.9488 21.2032 11.7388 22.0332 12.5688C22.4815 13.0583 22.9848 13.4946 23.5332 13.8688C23.9478 14.1445 24.4352 14.2907 24.9332 14.2888H25.0332L28.8332 14.2388C29.0206 14.228 29.2041 14.1804 29.3732 14.0988L29.2732 13.9388C28.5162 12.9072 27.6134 11.991 26.5932 11.2188C25.4032 10.2188 24.7932 9.74876 24.7232 8.97876C24.6532 8.20876 25.2132 7.53876 26.3332 6.26876L27.3332 5.15876C28.1774 4.29762 28.8705 3.30031 29.3832 2.20876C29.16 2.19553 28.9363 2.19553 28.7132 2.20876H24.3432C24.2641 2.1911 24.1822 2.1911 24.1032 2.20876C23.6403 3.27021 23.0883 4.29052 22.4532 5.25876C20.5632 8.07876 19.6732 8.45876 19.0432 8.45876C18.8478 8.45876 18.6555 8.41068 18.4832 8.31876C17.4832 7.74876 17.4832 6.47876 17.5432 5.55876C17.5432 5.40876 17.5432 5.25876 17.5432 5.12876C17.5432 4.47876 17.5432 3.91876 17.5932 3.43876C17.6732 1.75876 17.5932 1.74876 17.2132 1.65876C16.6009 1.53778 15.9771 1.48413 15.3532 1.49876H14.6632C14.0282 1.48564 13.3932 1.51907 12.7632 1.59876C12.8586 1.66907 12.9429 1.75335 13.0132 1.84876C13.4256 2.4991 13.6313 3.25917 13.6032 4.02876C13.7332 5.67876 13.6632 7.82876 12.6032 8.34876C12.4155 8.4366 12.2104 8.48103 12.0032 8.47876C11.0732 8.47876 10.1532 7.59876 8.58316 5.21876C7.98068 4.30747 7.4427 3.35515 6.97316 2.36876L6.89316 2.26876C6.79218 2.21729 6.68446 2.18026 6.57316 2.15876H2.57316H2.50316C3.09316 3.37876 5.89316 8.77876 9.02316 11.6088C10.7807 13.2235 13.0579 14.1563 15.4432 14.2388H17.2932C17.3875 14.2186 17.4785 14.1849 17.5632 14.1388C17.5632 14.1388 17.5632 14.1388 17.5632 14.0488C17.5632 13.7788 17.5632 11.4488 19.1432 11.0488C19.2655 11.0006 19.393 10.967 19.5232 10.9488V10.9488Z" fill="#192144"/>
  </symbol>
  <symbol id="icon-youtube" viewBox="0 0 20 16">
    <path d="M13.6028 7.32485L9.24799 4.42162C9.19341 4.38527 9.13 4.36439 9.0645 4.3612C8.99901 4.358 8.93387 4.37261 8.87601 4.40348C8.81802 4.43364 8.76952 4.47928 8.73589 4.53533C8.70226 4.59138 8.68481 4.65566 8.68549 4.72102V10.5275C8.68481 10.5928 8.70226 10.6571 8.73589 10.7132C8.76952 10.7692 8.81802 10.8148 8.87601 10.845C8.92943 10.8726 8.98829 10.8881 9.04839 10.8904C9.12009 10.8917 9.19023 10.8694 9.24799 10.8269L13.6028 7.92364C13.6534 7.89177 13.6951 7.84759 13.724 7.79523C13.7529 7.74287 13.7681 7.68405 13.7681 7.62424C13.7681 7.56444 13.7529 7.50561 13.724 7.45325C13.6951 7.4009 13.6534 7.35672 13.6028 7.32485V7.32485ZM9.41129 9.84702V5.40146L12.75 7.62424L9.41129 9.84702ZM19.7994 2.43473C19.7244 2.15811 19.5863 1.90267 19.3958 1.68856C19.2053 1.47444 18.9676 1.30749 18.7016 1.20086C15.6351 0.0214217 10.7087 0.0395669 10.5 0.0395669C10.2913 0.0395669 5.36492 0.0214217 2.29839 1.20086C2.03237 1.30749 1.79474 1.47444 1.60424 1.68856C1.41374 1.90267 1.27556 2.15811 1.20061 2.43473C0.973792 3.31477 0.701614 4.92969 0.701614 7.62424C0.701614 10.3188 0.973792 11.9337 1.20061 12.8138C1.27556 13.0904 1.41374 13.3458 1.60424 13.5599C1.79474 13.774 2.03237 13.941 2.29839 14.0476C5.36492 15.2271 10.2913 15.2089 10.5 15.2089H10.5635C11.1895 15.2089 15.7893 15.1726 18.7016 14.0476C18.9676 13.941 19.2053 13.774 19.3958 13.5599C19.5863 13.3458 19.7244 13.0904 19.7994 12.8138C20.0262 11.9337 20.2984 10.3188 20.2984 7.62424C20.2984 4.92969 20.0262 3.31477 19.7994 2.43473V2.43473ZM19.0917 12.6323C19.0481 12.7975 18.9663 12.95 18.8528 13.0777C18.7393 13.2054 18.5974 13.3045 18.4385 13.3672C15.499 14.5013 10.5544 14.4831 10.5 14.4831C10.4456 14.4831 5.50101 14.5013 2.56149 13.3672C2.4026 13.3045 2.26067 13.2054 2.1472 13.0777C2.03372 12.95 1.95187 12.7975 1.90827 12.6323C1.69053 11.7886 1.42742 10.2371 1.42742 7.62424C1.42742 5.01134 1.69053 3.45993 1.90827 2.61618C1.95187 2.45103 2.03372 2.29846 2.1472 2.1708C2.26067 2.04314 2.4026 1.94396 2.56149 1.8813C5.50101 0.747228 10.4456 0.765373 10.5 0.765373C10.5544 0.765373 15.499 0.747228 18.4385 1.8813C18.5974 1.94396 18.7393 2.04314 18.8528 2.1708C18.9663 2.29846 19.0481 2.45103 19.0917 2.61618C19.3095 3.45993 19.5726 5.01134 19.5726 7.62424C19.5726 10.2371 19.3095 11.7886 19.0917 12.6323Z" fill="black"/>
  </symbol>
</svg>
